<?xml version="1.0" encoding="UTF-8" ?>
<svg version="1.1" width="550" height="550" xmlns="http://www.w3.org/2000/svg" shape-rendering="crispEdges">
<rect x="240" y="90" width="10" height="10" fill="#FFD100" />
<rect x="230" y="100" width="10" height="10" fill="#FFD100" />
<rect x="240" y="100" width="10" height="10" fill="#FFD100" />
<rect x="250" y="100" width="10" height="10" fill="#FFD100" />
<rect x="220" y="110" width="10" height="10" fill="#FFD100" />
<rect x="230" y="110" width="10" height="10" fill="#FFD100" />
<rect x="240" y="110" width="10" height="10" fill="#FFD100" />
<rect x="250" y="110" width="10" height="10" fill="#FFD100" />
<rect x="260" y="110" width="10" height="10" fill="#FFD100" />
<rect x="210" y="120" width="10" height="10" fill="#FFD100" />
<rect x="220" y="120" width="10" height="10" fill="#FFD100" />
<rect x="260" y="120" width="10" height="10" fill="#FFD100" />
<rect x="270" y="120" width="10" height="10" fill="#FFD100" />
<rect x="350" y="120" width="10" height="10" fill="#FFD100" />
<rect x="360" y="120" width="10" height="10" fill="#FFD100" />
<rect x="380" y="120" width="10" height="10" fill="#FFD100" />
<rect x="390" y="120" width="10" height="10" fill="#FF8426" />
<rect x="210" y="130" width="10" height="10" fill="#FFD100" />
<rect x="270" y="130" width="10" height="10" fill="#FFD100" />
<rect x="340" y="130" width="10" height="10" fill="#FFD100" />
<rect x="350" y="130" width="10" height="10" fill="#FFD100" />
<rect x="360" y="130" width="10" height="10" fill="#FFD100" />
<rect x="380" y="130" width="10" height="10" fill="#FF8426" />
<rect x="390" y="130" width="10" height="10" fill="#FF8426" />
<rect x="400" y="130" width="10" height="10" fill="#FF8426" />
<rect x="240" y="140" width="10" height="10" fill="#FF8426" />
<rect x="340" y="140" width="10" height="10" fill="#FFD100" />
<rect x="350" y="140" width="10" height="10" fill="#FFD100" />
<rect x="390" y="140" width="10" height="10" fill="#FF8426" />
<rect x="400" y="140" width="10" height="10" fill="#FF8426" />
<rect x="230" y="150" width="10" height="10" fill="#FF8426" />
<rect x="240" y="150" width="10" height="10" fill="#FF8426" />
<rect x="250" y="150" width="10" height="10" fill="#FF8426" />
<rect x="340" y="150" width="10" height="10" fill="#FFD100" />
<rect x="350" y="150" width="10" height="10" fill="#FFD100" />
<rect x="380" y="150" width="10" height="10" fill="#FF8426" />
<rect x="390" y="150" width="10" height="10" fill="#FF8426" />
<rect x="400" y="150" width="10" height="10" fill="#FF8426" />
<rect x="20" y="160" width="10" height="10" fill="#7F0622" />
<rect x="30" y="160" width="10" height="10" fill="#D62411" />
<rect x="40" y="160" width="10" height="10" fill="#7F0622" />
<rect x="70" y="160" width="10" height="10" fill="#D62411" />
<rect x="80" y="160" width="10" height="10" fill="#D62411" />
<rect x="90" y="160" width="10" height="10" fill="#D62411" />
<rect x="100" y="160" width="10" height="10" fill="#D62411" />
<rect x="160" y="160" width="10" height="10" fill="#FFD100" />
<rect x="170" y="160" width="10" height="10" fill="#FFD100" />
<rect x="180" y="160" width="10" height="10" fill="#FFD100" />
<rect x="230" y="160" width="10" height="10" fill="#FF8426" />
<rect x="240" y="160" width="10" height="10" fill="#FF8426" />
<rect x="250" y="160" width="10" height="10" fill="#FF8426" />
<rect x="300" y="160" width="10" height="10" fill="#FFD100" />
<rect x="310" y="160" width="10" height="10" fill="#FFD100" />
<rect x="320" y="160" width="10" height="10" fill="#FFD100" />
<rect x="370" y="160" width="10" height="10" fill="#FF8426" />
<rect x="380" y="160" width="10" height="10" fill="#FF8426" />
<rect x="390" y="160" width="10" height="10" fill="#FF8426" />
<rect x="420" y="160" width="10" height="10" fill="#D62411" />
<rect x="430" y="160" width="10" height="10" fill="#D62411" />
<rect x="440" y="160" width="10" height="10" fill="#D62411" />
<rect x="450" y="160" width="10" height="10" fill="#7F0622" />
<rect x="510" y="160" width="10" height="10" fill="#7F0622" />
<rect x="520" y="160" width="10" height="10" fill="#7F0622" />
<rect x="530" y="160" width="10" height="10" fill="#7F0622" />
<rect x="540" y="160" width="10" height="10" fill="#7F0622" />
<rect x="20" y="170" width="10" height="10" fill="#7F0622" />
<rect x="30" y="170" width="10" height="10" fill="#7F0622" />
<rect x="40" y="170" width="10" height="10" fill="#D62411" />
<rect x="70" y="170" width="10" height="10" fill="#7F0622" />
<rect x="80" y="170" width="10" height="10" fill="#D62411" />
<rect x="90" y="170" width="10" height="10" fill="#D62411" />
<rect x="100" y="170" width="10" height="10" fill="#D62411" />
<rect x="160" y="170" width="10" height="10" fill="#FFD100" />
<rect x="230" y="170" width="10" height="10" fill="#FF8426" />
<rect x="240" y="170" width="10" height="10" fill="#FF8426" />
<rect x="250" y="170" width="10" height="10" fill="#FF8426" />
<rect x="320" y="170" width="10" height="10" fill="#FFD100" />
<rect x="360" y="170" width="10" height="10" fill="#FF8426" />
<rect x="370" y="170" width="10" height="10" fill="#FF8426" />
<rect x="380" y="170" width="10" height="10" fill="#FF8426" />
<rect x="420" y="170" width="10" height="10" fill="#D62411" />
<rect x="430" y="170" width="10" height="10" fill="#D62411" />
<rect x="440" y="170" width="10" height="10" fill="#7F0622" />
<rect x="450" y="170" width="10" height="10" fill="#D62411" />
<rect x="510" y="170" width="10" height="10" fill="#7F0622" />
<rect x="520" y="170" width="10" height="10" fill="#7F0622" />
<rect x="530" y="170" width="10" height="10" fill="#7F0622" />
<rect x="540" y="170" width="10" height="10" fill="#7F0622" />
<rect x="0" y="180" width="10" height="10" fill="#7F0622" />
<rect x="10" y="180" width="10" height="10" fill="#7F0622" />
<rect x="20" y="180" width="10" height="10" fill="#7F0622" />
<rect x="30" y="180" width="10" height="10" fill="#D62411" />
<rect x="40" y="180" width="10" height="10" fill="#7F0622" />
<rect x="70" y="180" width="10" height="10" fill="#D62411" />
<rect x="80" y="180" width="10" height="10" fill="#D62411" />
<rect x="90" y="180" width="10" height="10" fill="#D62411" />
<rect x="100" y="180" width="10" height="10" fill="#D62411" />
<rect x="110" y="180" width="10" height="10" fill="#D62411" />
<rect x="120" y="180" width="10" height="10" fill="#D62411" />
<rect x="160" y="180" width="10" height="10" fill="#FFD100" />
<rect x="180" y="180" width="10" height="10" fill="#FF8426" />
<rect x="230" y="180" width="10" height="10" fill="#FF8426" />
<rect x="240" y="180" width="10" height="10" fill="#FF8426" />
<rect x="250" y="180" width="10" height="10" fill="#FF8426" />
<rect x="300" y="180" width="10" height="10" fill="#FF8426" />
<rect x="320" y="180" width="10" height="10" fill="#FFD100" />
<rect x="350" y="180" width="10" height="10" fill="#FF8426" />
<rect x="360" y="180" width="10" height="10" fill="#FF8426" />
<rect x="370" y="180" width="10" height="10" fill="#FF8426" />
<rect x="420" y="180" width="10" height="10" fill="#D62411" />
<rect x="430" y="180" width="10" height="10" fill="#D62411" />
<rect x="440" y="180" width="10" height="10" fill="#D62411" />
<rect x="450" y="180" width="10" height="10" fill="#7F0622" />
<rect x="510" y="180" width="10" height="10" fill="#7F0622" />
<rect x="520" y="180" width="10" height="10" fill="#7F0622" />
<rect x="530" y="180" width="10" height="10" fill="#7F0622" />
<rect x="540" y="180" width="10" height="10" fill="#7F0622" />
<rect x="0" y="190" width="10" height="10" fill="#7F0622" />
<rect x="10" y="190" width="10" height="10" fill="#7F0622" />
<rect x="20" y="190" width="10" height="10" fill="#7F0622" />
<rect x="30" y="190" width="10" height="10" fill="#7F0622" />
<rect x="40" y="190" width="10" height="10" fill="#D62411" />
<rect x="70" y="190" width="10" height="10" fill="#7F0622" />
<rect x="80" y="190" width="10" height="10" fill="#D62411" />
<rect x="90" y="190" width="10" height="10" fill="#D62411" />
<rect x="100" y="190" width="10" height="10" fill="#D62411" />
<rect x="110" y="190" width="10" height="10" fill="#D62411" />
<rect x="120" y="190" width="10" height="10" fill="#D62411" />
<rect x="180" y="190" width="10" height="10" fill="#FF8426" />
<rect x="230" y="190" width="10" height="10" fill="#FF8426" />
<rect x="240" y="190" width="10" height="10" fill="#FF8426" />
<rect x="250" y="190" width="10" height="10" fill="#FF8426" />
<rect x="300" y="190" width="10" height="10" fill="#FF8426" />
<rect x="340" y="190" width="10" height="10" fill="#FF8426" />
<rect x="350" y="190" width="10" height="10" fill="#FF8426" />
<rect x="360" y="190" width="10" height="10" fill="#FF8426" />
<rect x="420" y="190" width="10" height="10" fill="#D62411" />
<rect x="430" y="190" width="10" height="10" fill="#D62411" />
<rect x="440" y="190" width="10" height="10" fill="#7F0622" />
<rect x="450" y="190" width="10" height="10" fill="#D62411" />
<rect x="510" y="190" width="10" height="10" fill="#7F0622" />
<rect x="520" y="190" width="10" height="10" fill="#7F0622" />
<rect x="530" y="190" width="10" height="10" fill="#7F0622" />
<rect x="540" y="190" width="10" height="10" fill="#7F0622" />
<rect x="0" y="200" width="10" height="10" fill="#7F0622" />
<rect x="10" y="200" width="10" height="10" fill="#7F0622" />
<rect x="20" y="200" width="10" height="10" fill="#7F0622" />
<rect x="30" y="200" width="10" height="10" fill="#7F0622" />
<rect x="90" y="200" width="10" height="10" fill="#D62411" />
<rect x="100" y="200" width="10" height="10" fill="#D62411" />
<rect x="110" y="200" width="10" height="10" fill="#D62411" />
<rect x="120" y="200" width="10" height="10" fill="#D62411" />
<rect x="160" y="200" width="10" height="10" fill="#FF8426" />
<rect x="170" y="200" width="10" height="10" fill="#FF8426" />
<rect x="180" y="200" width="10" height="10" fill="#FF8426" />
<rect x="230" y="200" width="10" height="10" fill="#FF8426" />
<rect x="240" y="200" width="10" height="10" fill="#FF8426" />
<rect x="250" y="200" width="10" height="10" fill="#FF8426" />
<rect x="300" y="200" width="10" height="10" fill="#FF8426" />
<rect x="310" y="200" width="10" height="10" fill="#FF8426" />
<rect x="320" y="200" width="10" height="10" fill="#FF8426" />
<rect x="340" y="200" width="10" height="10" fill="#FF8426" />
<rect x="350" y="200" width="10" height="10" fill="#FF8426" />
<rect x="370" y="200" width="10" height="10" fill="#FF8426" />
<rect x="380" y="200" width="10" height="10" fill="#FF8426" />
<rect x="390" y="200" width="10" height="10" fill="#D62411" />
<rect x="400" y="200" width="10" height="10" fill="#7F0622" />
<rect x="420" y="200" width="10" height="10" fill="#D62411" />
<rect x="430" y="200" width="10" height="10" fill="#D62411" />
<rect x="440" y="200" width="10" height="10" fill="#D62411" />
<rect x="450" y="200" width="10" height="10" fill="#7F0622" />
<rect x="500" y="200" width="10" height="10" fill="#7F0622" />
<rect x="510" y="200" width="10" height="10" fill="#7F0622" />
<rect x="520" y="200" width="10" height="10" fill="#7F0622" />
<rect x="530" y="200" width="10" height="10" fill="#7F0622" />
<rect x="540" y="200" width="10" height="10" fill="#7F0622" />
<rect x="0" y="210" width="10" height="10" fill="#7F0622" />
<rect x="10" y="210" width="10" height="10" fill="#7F0622" />
<rect x="20" y="210" width="10" height="10" fill="#7F0622" />
<rect x="30" y="210" width="10" height="10" fill="#7F0622" />
<rect x="90" y="210" width="10" height="10" fill="#D62411" />
<rect x="100" y="210" width="10" height="10" fill="#D62411" />
<rect x="110" y="210" width="10" height="10" fill="#D62411" />
<rect x="120" y="210" width="10" height="10" fill="#D62411" />
<rect x="160" y="210" width="10" height="10" fill="#FF8426" />
<rect x="170" y="210" width="10" height="10" fill="#FF8426" />
<rect x="180" y="210" width="10" height="10" fill="#FF8426" />
<rect x="230" y="210" width="10" height="10" fill="#FF8426" />
<rect x="240" y="210" width="10" height="10" fill="#FF8426" />
<rect x="250" y="210" width="10" height="10" fill="#FF8426" />
<rect x="300" y="210" width="10" height="10" fill="#FF8426" />
<rect x="310" y="210" width="10" height="10" fill="#FF8426" />
<rect x="320" y="210" width="10" height="10" fill="#FF8426" />
<rect x="340" y="210" width="10" height="10" fill="#FF8426" />
<rect x="350" y="210" width="10" height="10" fill="#FF8426" />
<rect x="370" y="210" width="10" height="10" fill="#FF8426" />
<rect x="380" y="210" width="10" height="10" fill="#D62411" />
<rect x="390" y="210" width="10" height="10" fill="#7F0622" />
<rect x="400" y="210" width="10" height="10" fill="#D62411" />
<rect x="420" y="210" width="10" height="10" fill="#D62411" />
<rect x="430" y="210" width="10" height="10" fill="#D62411" />
<rect x="440" y="210" width="10" height="10" fill="#7F0622" />
<rect x="450" y="210" width="10" height="10" fill="#D62411" />
<rect x="500" y="210" width="10" height="10" fill="#D62411" />
<rect x="510" y="210" width="10" height="10" fill="#7F0622" />
<rect x="520" y="210" width="10" height="10" fill="#7F0622" />
<rect x="530" y="210" width="10" height="10" fill="#7F0622" />
<rect x="540" y="210" width="10" height="10" fill="#7F0622" />
<rect x="0" y="220" width="10" height="10" fill="#7F0622" />
<rect x="10" y="220" width="10" height="10" fill="#7F0622" />
<rect x="20" y="220" width="10" height="10" fill="#7F0622" />
<rect x="30" y="220" width="10" height="10" fill="#7F0622" />
<rect x="160" y="220" width="10" height="10" fill="#FF8426" />
<rect x="170" y="220" width="10" height="10" fill="#FF8426" />
<rect x="180" y="220" width="10" height="10" fill="#FF8426" />
<rect x="230" y="220" width="10" height="10" fill="#FF8426" />
<rect x="240" y="220" width="10" height="10" fill="#FF8426" />
<rect x="250" y="220" width="10" height="10" fill="#FF8426" />
<rect x="300" y="220" width="10" height="10" fill="#FF8426" />
<rect x="310" y="220" width="10" height="10" fill="#FF8426" />
<rect x="320" y="220" width="10" height="10" fill="#FF8426" />
<rect x="420" y="220" width="10" height="10" fill="#D62411" />
<rect x="430" y="220" width="10" height="10" fill="#D62411" />
<rect x="440" y="220" width="10" height="10" fill="#D62411" />
<rect x="450" y="220" width="10" height="10" fill="#7F0622" />
<rect x="480" y="220" width="10" height="10" fill="#7F0622" />
<rect x="490" y="220" width="10" height="10" fill="#D62411" />
<rect x="500" y="220" width="10" height="10" fill="#7F0622" />
<rect x="510" y="220" width="10" height="10" fill="#7F0622" />
<rect x="520" y="220" width="10" height="10" fill="#7F0622" />
<rect x="0" y="230" width="10" height="10" fill="#7F0622" />
<rect x="10" y="230" width="10" height="10" fill="#7F0622" />
<rect x="20" y="230" width="10" height="10" fill="#7F0622" />
<rect x="30" y="230" width="10" height="10" fill="#7F0622" />
<rect x="160" y="230" width="10" height="10" fill="#FF8426" />
<rect x="170" y="230" width="10" height="10" fill="#FF8426" />
<rect x="180" y="230" width="10" height="10" fill="#FF8426" />
<rect x="230" y="230" width="10" height="10" fill="#FF8426" />
<rect x="240" y="230" width="10" height="10" fill="#FF8426" />
<rect x="250" y="230" width="10" height="10" fill="#FF8426" />
<rect x="300" y="230" width="10" height="10" fill="#FF8426" />
<rect x="310" y="230" width="10" height="10" fill="#FF8426" />
<rect x="320" y="230" width="10" height="10" fill="#FF8426" />
<rect x="420" y="230" width="10" height="10" fill="#D62411" />
<rect x="430" y="230" width="10" height="10" fill="#D62411" />
<rect x="440" y="230" width="10" height="10" fill="#7F0622" />
<rect x="450" y="230" width="10" height="10" fill="#D62411" />
<rect x="480" y="230" width="10" height="10" fill="#D62411" />
<rect x="490" y="230" width="10" height="10" fill="#7F0622" />
<rect x="500" y="230" width="10" height="10" fill="#D62411" />
<rect x="510" y="230" width="10" height="10" fill="#7F0622" />
<rect x="520" y="230" width="10" height="10" fill="#7F0622" />
<rect x="0" y="240" width="10" height="10" fill="#7F0622" />
<rect x="10" y="240" width="10" height="10" fill="#7F0622" />
<rect x="20" y="240" width="10" height="10" fill="#7F0622" />
<rect x="30" y="240" width="10" height="10" fill="#7F0622" />
<rect x="50" y="240" width="10" height="10" fill="#7F0622" />
<rect x="60" y="240" width="10" height="10" fill="#D62411" />
<rect x="70" y="240" width="10" height="10" fill="#7F0622" />
<rect x="80" y="240" width="10" height="10" fill="#D62411" />
<rect x="90" y="240" width="10" height="10" fill="#D62411" />
<rect x="100" y="240" width="10" height="10" fill="#D62411" />
<rect x="110" y="240" width="10" height="10" fill="#D62411" />
<rect x="120" y="240" width="10" height="10" fill="#D62411" />
<rect x="160" y="240" width="10" height="10" fill="#FF8426" />
<rect x="170" y="240" width="10" height="10" fill="#FF8426" />
<rect x="180" y="240" width="10" height="10" fill="#FF8426" />
<rect x="230" y="240" width="10" height="10" fill="#FF8426" />
<rect x="240" y="240" width="10" height="10" fill="#FF8426" />
<rect x="250" y="240" width="10" height="10" fill="#FF8426" />
<rect x="300" y="240" width="10" height="10" fill="#FF8426" />
<rect x="310" y="240" width="10" height="10" fill="#FF8426" />
<rect x="320" y="240" width="10" height="10" fill="#FF8426" />
<rect x="420" y="240" width="10" height="10" fill="#D62411" />
<rect x="430" y="240" width="10" height="10" fill="#D62411" />
<rect x="440" y="240" width="10" height="10" fill="#D62411" />
<rect x="450" y="240" width="10" height="10" fill="#7F0622" />
<rect x="480" y="240" width="10" height="10" fill="#7F0622" />
<rect x="490" y="240" width="10" height="10" fill="#D62411" />
<rect x="500" y="240" width="10" height="10" fill="#7F0622" />
<rect x="0" y="250" width="10" height="10" fill="#7F0622" />
<rect x="10" y="250" width="10" height="10" fill="#7F0622" />
<rect x="20" y="250" width="10" height="10" fill="#7F0622" />
<rect x="30" y="250" width="10" height="10" fill="#7F0622" />
<rect x="50" y="250" width="10" height="10" fill="#D62411" />
<rect x="60" y="250" width="10" height="10" fill="#7F0622" />
<rect x="70" y="250" width="10" height="10" fill="#D62411" />
<rect x="80" y="250" width="10" height="10" fill="#D62411" />
<rect x="90" y="250" width="10" height="10" fill="#D62411" />
<rect x="100" y="250" width="10" height="10" fill="#D62411" />
<rect x="110" y="250" width="10" height="10" fill="#D62411" />
<rect x="120" y="250" width="10" height="10" fill="#D62411" />
<rect x="160" y="250" width="10" height="10" fill="#FF8426" />
<rect x="170" y="250" width="10" height="10" fill="#FF8426" />
<rect x="180" y="250" width="10" height="10" fill="#FF8426" />
<rect x="190" y="250" width="10" height="10" fill="#FF8426" />
<rect x="230" y="250" width="10" height="10" fill="#FF8426" />
<rect x="240" y="250" width="10" height="10" fill="#FF8426" />
<rect x="250" y="250" width="10" height="10" fill="#FF8426" />
<rect x="290" y="250" width="10" height="10" fill="#FF8426" />
<rect x="300" y="250" width="10" height="10" fill="#FF8426" />
<rect x="310" y="250" width="10" height="10" fill="#FF8426" />
<rect x="320" y="250" width="10" height="10" fill="#FF8426" />
<rect x="420" y="250" width="10" height="10" fill="#D62411" />
<rect x="430" y="250" width="10" height="10" fill="#D62411" />
<rect x="440" y="250" width="10" height="10" fill="#7F0622" />
<rect x="450" y="250" width="10" height="10" fill="#D62411" />
<rect x="480" y="250" width="10" height="10" fill="#D62411" />
<rect x="490" y="250" width="10" height="10" fill="#7F0622" />
<rect x="500" y="250" width="10" height="10" fill="#D62411" />
<rect x="510" y="250" width="10" height="10" fill="#7F0622" />
<rect x="520" y="250" width="10" height="10" fill="#7F0622" />
<rect x="0" y="260" width="10" height="10" fill="#7F0622" />
<rect x="10" y="260" width="10" height="10" fill="#7F0622" />
<rect x="20" y="260" width="10" height="10" fill="#7F0622" />
<rect x="30" y="260" width="10" height="10" fill="#7F0622" />
<rect x="50" y="260" width="10" height="10" fill="#7F0622" />
<rect x="60" y="260" width="10" height="10" fill="#D62411" />
<rect x="70" y="260" width="10" height="10" fill="#7F0622" />
<rect x="80" y="260" width="10" height="10" fill="#D62411" />
<rect x="90" y="260" width="10" height="10" fill="#D62411" />
<rect x="100" y="260" width="10" height="10" fill="#D62411" />
<rect x="110" y="260" width="10" height="10" fill="#D62411" />
<rect x="120" y="260" width="10" height="10" fill="#D62411" />
<rect x="170" y="260" width="10" height="10" fill="#FF8426" />
<rect x="180" y="260" width="10" height="10" fill="#FF8426" />
<rect x="190" y="260" width="10" height="10" fill="#FF8426" />
<rect x="200" y="260" width="10" height="10" fill="#FF8426" />
<rect x="230" y="260" width="10" height="10" fill="#FF8426" />
<rect x="240" y="260" width="10" height="10" fill="#FF8426" />
<rect x="250" y="260" width="10" height="10" fill="#FF8426" />
<rect x="280" y="260" width="10" height="10" fill="#FF8426" />
<rect x="290" y="260" width="10" height="10" fill="#FF8426" />
<rect x="300" y="260" width="10" height="10" fill="#FF8426" />
<rect x="310" y="260" width="10" height="10" fill="#FF8426" />
<rect x="420" y="260" width="10" height="10" fill="#D62411" />
<rect x="430" y="260" width="10" height="10" fill="#D62411" />
<rect x="440" y="260" width="10" height="10" fill="#D62411" />
<rect x="450" y="260" width="10" height="10" fill="#7F0622" />
<rect x="480" y="260" width="10" height="10" fill="#7F0622" />
<rect x="490" y="260" width="10" height="10" fill="#D62411" />
<rect x="500" y="260" width="10" height="10" fill="#7F0622" />
<rect x="510" y="260" width="10" height="10" fill="#7F0622" />
<rect x="520" y="260" width="10" height="10" fill="#7F0622" />
<rect x="0" y="270" width="10" height="10" fill="#7F0622" />
<rect x="10" y="270" width="10" height="10" fill="#7F0622" />
<rect x="20" y="270" width="10" height="10" fill="#7F0622" />
<rect x="30" y="270" width="10" height="10" fill="#7F0622" />
<rect x="90" y="270" width="10" height="10" fill="#D62411" />
<rect x="100" y="270" width="10" height="10" fill="#D62411" />
<rect x="110" y="270" width="10" height="10" fill="#D62411" />
<rect x="120" y="270" width="10" height="10" fill="#D62411" />
<rect x="180" y="270" width="10" height="10" fill="#FF8426" />
<rect x="190" y="270" width="10" height="10" fill="#FF8426" />
<rect x="200" y="270" width="10" height="10" fill="#FF8426" />
<rect x="230" y="270" width="10" height="10" fill="#FF8426" />
<rect x="240" y="270" width="10" height="10" fill="#FF8426" />
<rect x="250" y="270" width="10" height="10" fill="#FF8426" />
<rect x="280" y="270" width="10" height="10" fill="#FF8426" />
<rect x="290" y="270" width="10" height="10" fill="#FF8426" />
<rect x="300" y="270" width="10" height="10" fill="#FF8426" />
<rect x="420" y="270" width="10" height="10" fill="#D62411" />
<rect x="430" y="270" width="10" height="10" fill="#D62411" />
<rect x="440" y="270" width="10" height="10" fill="#7F0622" />
<rect x="450" y="270" width="10" height="10" fill="#D62411" />
<rect x="500" y="270" width="10" height="10" fill="#D62411" />
<rect x="510" y="270" width="10" height="10" fill="#7F0622" />
<rect x="520" y="270" width="10" height="10" fill="#7F0622" />
<rect x="530" y="270" width="10" height="10" fill="#7F0622" />
<rect x="540" y="270" width="10" height="10" fill="#7F0622" />
<rect x="0" y="280" width="10" height="10" fill="#7F0622" />
<rect x="10" y="280" width="10" height="10" fill="#7F0622" />
<rect x="20" y="280" width="10" height="10" fill="#7F0622" />
<rect x="30" y="280" width="10" height="10" fill="#7F0622" />
<rect x="90" y="280" width="10" height="10" fill="#D62411" />
<rect x="100" y="280" width="10" height="10" fill="#D62411" />
<rect x="110" y="280" width="10" height="10" fill="#D62411" />
<rect x="120" y="280" width="10" height="10" fill="#D62411" />
<rect x="180" y="280" width="10" height="10" fill="#FF8426" />
<rect x="190" y="280" width="10" height="10" fill="#FF8426" />
<rect x="200" y="280" width="10" height="10" fill="#FF8426" />
<rect x="230" y="280" width="10" height="10" fill="#FF8426" />
<rect x="240" y="280" width="10" height="10" fill="#FF8426" />
<rect x="250" y="280" width="10" height="10" fill="#FF8426" />
<rect x="280" y="280" width="10" height="10" fill="#FF8426" />
<rect x="290" y="280" width="10" height="10" fill="#FF8426" />
<rect x="300" y="280" width="10" height="10" fill="#FF8426" />
<rect x="420" y="280" width="10" height="10" fill="#D62411" />
<rect x="430" y="280" width="10" height="10" fill="#D62411" />
<rect x="440" y="280" width="10" height="10" fill="#D62411" />
<rect x="450" y="280" width="10" height="10" fill="#7F0622" />
<rect x="500" y="280" width="10" height="10" fill="#7F0622" />
<rect x="510" y="280" width="10" height="10" fill="#7F0622" />
<rect x="520" y="280" width="10" height="10" fill="#7F0622" />
<rect x="530" y="280" width="10" height="10" fill="#7F0622" />
<rect x="540" y="280" width="10" height="10" fill="#7F0622" />
<rect x="0" y="290" width="10" height="10" fill="#7F0622" />
<rect x="10" y="290" width="10" height="10" fill="#7F0622" />
<rect x="20" y="290" width="10" height="10" fill="#7F0622" />
<rect x="30" y="290" width="10" height="10" fill="#7F0622" />
<rect x="90" y="290" width="10" height="10" fill="#D62411" />
<rect x="100" y="290" width="10" height="10" fill="#D62411" />
<rect x="110" y="290" width="10" height="10" fill="#D62411" />
<rect x="120" y="290" width="10" height="10" fill="#D62411" />
<rect x="180" y="290" width="10" height="10" fill="#FF8426" />
<rect x="190" y="290" width="10" height="10" fill="#FF8426" />
<rect x="200" y="290" width="10" height="10" fill="#FF8426" />
<rect x="230" y="290" width="10" height="10" fill="#FF8426" />
<rect x="240" y="290" width="10" height="10" fill="#FF8426" />
<rect x="250" y="290" width="10" height="10" fill="#FF8426" />
<rect x="280" y="290" width="10" height="10" fill="#FF8426" />
<rect x="290" y="290" width="10" height="10" fill="#FF8426" />
<rect x="300" y="290" width="10" height="10" fill="#FF8426" />
<rect x="420" y="290" width="10" height="10" fill="#D62411" />
<rect x="430" y="290" width="10" height="10" fill="#D62411" />
<rect x="440" y="290" width="10" height="10" fill="#7F0622" />
<rect x="450" y="290" width="10" height="10" fill="#D62411" />
<rect x="510" y="290" width="10" height="10" fill="#7F0622" />
<rect x="520" y="290" width="10" height="10" fill="#7F0622" />
<rect x="530" y="290" width="10" height="10" fill="#7F0622" />
<rect x="540" y="290" width="10" height="10" fill="#7F0622" />
<rect x="0" y="300" width="10" height="10" fill="#7F0622" />
<rect x="10" y="300" width="10" height="10" fill="#7F0622" />
<rect x="20" y="300" width="10" height="10" fill="#7F0622" />
<rect x="30" y="300" width="10" height="10" fill="#7F0622" />
<rect x="90" y="300" width="10" height="10" fill="#D62411" />
<rect x="100" y="300" width="10" height="10" fill="#D62411" />
<rect x="110" y="300" width="10" height="10" fill="#D62411" />
<rect x="120" y="300" width="10" height="10" fill="#D62411" />
<rect x="180" y="300" width="10" height="10" fill="#FF8426" />
<rect x="190" y="300" width="10" height="10" fill="#FF8426" />
<rect x="200" y="300" width="10" height="10" fill="#FF8426" />
<rect x="280" y="300" width="10" height="10" fill="#FF8426" />
<rect x="290" y="300" width="10" height="10" fill="#FF8426" />
<rect x="300" y="300" width="10" height="10" fill="#FF8426" />
<rect x="420" y="300" width="10" height="10" fill="#D62411" />
<rect x="430" y="300" width="10" height="10" fill="#D62411" />
<rect x="440" y="300" width="10" height="10" fill="#D62411" />
<rect x="450" y="300" width="10" height="10" fill="#7F0622" />
<rect x="510" y="300" width="10" height="10" fill="#7F0622" />
<rect x="520" y="300" width="10" height="10" fill="#7F0622" />
<rect x="530" y="300" width="10" height="10" fill="#7F0622" />
<rect x="540" y="300" width="10" height="10" fill="#7F0622" />
<rect x="0" y="310" width="10" height="10" fill="#7F0622" />
<rect x="10" y="310" width="10" height="10" fill="#7F0622" />
<rect x="20" y="310" width="10" height="10" fill="#7F0622" />
<rect x="30" y="310" width="10" height="10" fill="#7F0622" />
<rect x="40" y="310" width="10" height="10" fill="#D62411" />
<rect x="50" y="310" width="10" height="10" fill="#7F0622" />
<rect x="60" y="310" width="10" height="10" fill="#D62411" />
<rect x="90" y="310" width="10" height="10" fill="#D62411" />
<rect x="100" y="310" width="10" height="10" fill="#D62411" />
<rect x="110" y="310" width="10" height="10" fill="#D62411" />
<rect x="120" y="310" width="10" height="10" fill="#D62411" />
<rect x="180" y="310" width="10" height="10" fill="#FF8426" />
<rect x="190" y="310" width="10" height="10" fill="#FF8426" />
<rect x="200" y="310" width="10" height="10" fill="#FF8426" />
<rect x="280" y="310" width="10" height="10" fill="#FF8426" />
<rect x="290" y="310" width="10" height="10" fill="#FF8426" />
<rect x="300" y="310" width="10" height="10" fill="#FF8426" />
<rect x="420" y="310" width="10" height="10" fill="#D62411" />
<rect x="430" y="310" width="10" height="10" fill="#D62411" />
<rect x="440" y="310" width="10" height="10" fill="#7F0622" />
<rect x="450" y="310" width="10" height="10" fill="#D62411" />
<rect x="510" y="310" width="10" height="10" fill="#7F0622" />
<rect x="520" y="310" width="10" height="10" fill="#7F0622" />
<rect x="530" y="310" width="10" height="10" fill="#7F0622" />
<rect x="540" y="310" width="10" height="10" fill="#7F0622" />
<rect x="0" y="320" width="10" height="10" fill="#7F0622" />
<rect x="10" y="320" width="10" height="10" fill="#7F0622" />
<rect x="20" y="320" width="10" height="10" fill="#7F0622" />
<rect x="30" y="320" width="10" height="10" fill="#7F0622" />
<rect x="40" y="320" width="10" height="10" fill="#7F0622" />
<rect x="50" y="320" width="10" height="10" fill="#D62411" />
<rect x="60" y="320" width="10" height="10" fill="#7F0622" />
<rect x="90" y="320" width="10" height="10" fill="#D62411" />
<rect x="100" y="320" width="10" height="10" fill="#D62411" />
<rect x="110" y="320" width="10" height="10" fill="#D62411" />
<rect x="120" y="320" width="10" height="10" fill="#D62411" />
<rect x="180" y="320" width="10" height="10" fill="#FF8426" />
<rect x="190" y="320" width="10" height="10" fill="#FF8426" />
<rect x="200" y="320" width="10" height="10" fill="#FF8426" />
<rect x="230" y="320" width="10" height="10" fill="#FF8426" />
<rect x="240" y="320" width="10" height="10" fill="#FF8426" />
<rect x="250" y="320" width="10" height="10" fill="#FF8426" />
<rect x="280" y="320" width="10" height="10" fill="#FF8426" />
<rect x="290" y="320" width="10" height="10" fill="#FF8426" />
<rect x="300" y="320" width="10" height="10" fill="#FF8426" />
<rect x="420" y="320" width="10" height="10" fill="#D62411" />
<rect x="430" y="320" width="10" height="10" fill="#D62411" />
<rect x="440" y="320" width="10" height="10" fill="#D62411" />
<rect x="450" y="320" width="10" height="10" fill="#7F0622" />
<rect x="510" y="320" width="10" height="10" fill="#7F0622" />
<rect x="520" y="320" width="10" height="10" fill="#7F0622" />
<rect x="530" y="320" width="10" height="10" fill="#7F0622" />
<rect x="540" y="320" width="10" height="10" fill="#7F0622" />
<rect x="20" y="330" width="10" height="10" fill="#7F0622" />
<rect x="30" y="330" width="10" height="10" fill="#7F0622" />
<rect x="40" y="330" width="10" height="10" fill="#D62411" />
<rect x="50" y="330" width="10" height="10" fill="#7F0622" />
<rect x="60" y="330" width="10" height="10" fill="#D62411" />
<rect x="90" y="330" width="10" height="10" fill="#D62411" />
<rect x="100" y="330" width="10" height="10" fill="#D62411" />
<rect x="110" y="330" width="10" height="10" fill="#D62411" />
<rect x="120" y="330" width="10" height="10" fill="#D62411" />
<rect x="180" y="330" width="10" height="10" fill="#D62411" />
<rect x="190" y="330" width="10" height="10" fill="#FF8426" />
<rect x="200" y="330" width="10" height="10" fill="#FF8426" />
<rect x="230" y="330" width="10" height="10" fill="#FF8426" />
<rect x="240" y="330" width="10" height="10" fill="#FF8426" />
<rect x="250" y="330" width="10" height="10" fill="#FF8426" />
<rect x="280" y="330" width="10" height="10" fill="#FF8426" />
<rect x="290" y="330" width="10" height="10" fill="#FF8426" />
<rect x="300" y="330" width="10" height="10" fill="#D62411" />
<rect x="420" y="330" width="10" height="10" fill="#D62411" />
<rect x="430" y="330" width="10" height="10" fill="#D62411" />
<rect x="440" y="330" width="10" height="10" fill="#7F0622" />
<rect x="450" y="330" width="10" height="10" fill="#D62411" />
<rect x="510" y="330" width="10" height="10" fill="#7F0622" />
<rect x="520" y="330" width="10" height="10" fill="#7F0622" />
<rect x="530" y="330" width="10" height="10" fill="#7F0622" />
<rect x="540" y="330" width="10" height="10" fill="#7F0622" />
<rect x="20" y="340" width="10" height="10" fill="#7F0622" />
<rect x="30" y="340" width="10" height="10" fill="#7F0622" />
<rect x="40" y="340" width="10" height="10" fill="#7F0622" />
<rect x="50" y="340" width="10" height="10" fill="#D62411" />
<rect x="60" y="340" width="10" height="10" fill="#7F0622" />
<rect x="90" y="340" width="10" height="10" fill="#D62411" />
<rect x="100" y="340" width="10" height="10" fill="#D62411" />
<rect x="110" y="340" width="10" height="10" fill="#D62411" />
<rect x="120" y="340" width="10" height="10" fill="#D62411" />
<rect x="180" y="340" width="10" height="10" fill="#FF8426" />
<rect x="190" y="340" width="10" height="10" fill="#D62411" />
<rect x="200" y="340" width="10" height="10" fill="#FF8426" />
<rect x="230" y="340" width="10" height="10" fill="#FF8426" />
<rect x="240" y="340" width="10" height="10" fill="#FF8426" />
<rect x="250" y="340" width="10" height="10" fill="#FF8426" />
<rect x="280" y="340" width="10" height="10" fill="#FF8426" />
<rect x="290" y="340" width="10" height="10" fill="#D62411" />
<rect x="300" y="340" width="10" height="10" fill="#FF8426" />
<rect x="420" y="340" width="10" height="10" fill="#D62411" />
<rect x="430" y="340" width="10" height="10" fill="#D62411" />
<rect x="440" y="340" width="10" height="10" fill="#D62411" />
<rect x="450" y="340" width="10" height="10" fill="#7F0622" />
<rect x="510" y="340" width="10" height="10" fill="#7F0622" />
<rect x="520" y="340" width="10" height="10" fill="#7F0622" />
<rect x="530" y="340" width="10" height="10" fill="#7F0622" />
<rect x="540" y="340" width="10" height="10" fill="#7F0622" />
<rect x="230" y="350" width="10" height="10" fill="#FF8426" />
<rect x="240" y="350" width="10" height="10" fill="#FF8426" />
<rect x="250" y="350" width="10" height="10" fill="#FF8426" />
<rect x="230" y="360" width="10" height="10" fill="#FF8426" />
<rect x="240" y="360" width="10" height="10" fill="#FF8426" />
<rect x="250" y="360" width="10" height="10" fill="#FF8426" />
<rect x="230" y="370" width="10" height="10" fill="#D62411" />
<rect x="240" y="370" width="10" height="10" fill="#FF8426" />
<rect x="250" y="370" width="10" height="10" fill="#D62411" />
<rect x="230" y="400" width="10" height="10" fill="#D62411" />
<rect x="240" y="400" width="10" height="10" fill="#FF8426" />
<rect x="250" y="400" width="10" height="10" fill="#D62411" />
<rect x="230" y="410" width="10" height="10" fill="#D62411" />
<rect x="240" y="410" width="10" height="10" fill="#D62411" />
<rect x="250" y="410" width="10" height="10" fill="#D62411" />
<rect x="230" y="420" width="10" height="10" fill="#7F0622" />
<rect x="240" y="420" width="10" height="10" fill="#D62411" />
<rect x="250" y="420" width="10" height="10" fill="#7F0622" />
<rect x="230" y="450" width="10" height="10" fill="#7F0622" />
<rect x="240" y="450" width="10" height="10" fill="#D62411" />
<rect x="250" y="450" width="10" height="10" fill="#7F0622" />
<rect x="230" y="460" width="10" height="10" fill="#7F0622" />
<rect x="240" y="460" width="10" height="10" fill="#7F0622" />
<rect x="250" y="460" width="10" height="10" fill="#7F0622" />
</svg>